PathFileType	4	(X/Y/Z)	OpenSim_Sub01_CSBaseline_Magnet.trc
DataRate	CameraRate	NumFrames	NumMarkers	Units	OrigDataRate	OrigDataStartFrame	OrigNumFrames
100	100	26	8	m	100	1488	5950
Frame#	Time	torso_imu_offset_imu	pelvis_imu_offset_imu	tibia_r_imu_offset_imu	femur_r_imu_offset_imu	tibia_l_imu_offset_imu	femur_l_imu_offset_imu	toes_r_imu_offset_imu	toes_l_imu_offset_imu
				X1	Y1	Z1	X2	Y2	Z2	X3	Y3	Z3	X4	Y4	Z4	X5	Y5	Z5	X6	Y6	Z6	X7	Y7	Z7	X8		Y8	Z8	

1488	14.87000000	-0.92879525	-0.11259167	0.03381169	-0.69569778	0.14086586	-0.61255938	-0.65386550	-0.44495037	0.00108372	-0.77653585	-0.26291649	0.11755829	-0.24205179	0.77432752	0.10896189	-0.38113734	-0.00200574	0.30497411	-0.71513098	-0.08316809	-0.36624468	-0.78666824	-0.14424235	0.08693383
1489	14.88000000	-0.93013561	-0.11201470	0.03533863	-0.69718350	0.13341267	-0.61301230	-0.64852037	-0.45249652	0.00302807	-0.77190180	-0.27433097	0.11552392	-0.22131099	0.78016762	0.10068007	-0.38823022	-0.01190943	0.29337318	-0.71443456	-0.08307538	-0.36368009	-0.78192075	-0.13798072	0.13352461
1490	14.89000000	-0.93116184	-0.11286887	0.03858094	-0.69582520	0.12762583	-0.61469152	-0.64167775	-0.45987645	0.00491842	-0.76605927	-0.28523313	0.11260574	-0.20076755	0.78745263	0.09286905	-0.39426274	-0.02185720	0.27981608	-0.71566199	-0.08272285	-0.36111555	-0.77397094	-0.13272291	0.17475543
1491	14.90000000	-0.93133928	-0.11140911	0.04074197	-0.69334448	0.12288381	-0.61727148	-0.63642961	-0.46768641	0.00741475	-0.76115890	-0.29507024	0.11131660	-0.18092478	0.79525863	0.08582725	-0.40230216	-0.03030834	0.26541827	-0.71662081	-0.08359089	-0.35865167	-0.76402051	-0.12543432	0.21240635
1492	14.91000000	-0.93057746	-0.10587397	0.04047884	-0.69108562	0.11866270	-0.62049457	-0.63427814	-0.47566519	0.01088560	-0.75826247	-0.30365556	0.11267469	-0.16203873	0.80253888	0.08039191	-0.41361044	-0.03667578	0.25126633	-0.71627632	-0.08597541	-0.35650722	-0.75307991	-0.11440621	0.24750477
1493	14.92000000	-0.92977939	-0.09899469	0.03974694	-0.68950240	0.11469842	-0.62426271	-0.63311347	-0.48163269	0.01503653	-0.75596163	-0.31159950	0.11435217	-0.14381867	0.80799804	0.07860018	-0.42536092	-0.04251161	0.23835056	-0.71622159	-0.08751300	-0.35515521	-0.74170455	-0.10093991	0.27932388
1494	14.93000000	-0.92989353	-0.09374751	0.04073391	-0.68887242	0.11081056	-0.62844362	-0.63058473	-0.48349583	0.01949617	-0.75264640	-0.31962310	0.11387052	-0.12595929	0.81050463	0.08221493	-0.43446934	-0.04949292	0.22749734	-0.71816266	-0.08577153	-0.35495211	-0.73049921	-0.08681662	0.30678179
1495	14.94000000	-0.93094968	-0.08936219	0.04341815	-0.68889868	0.10731922	-0.63232917	-0.62689853	-0.48274022	0.02402468	-0.74807586	-0.32847585	0.11186957	-0.10876848	0.81096577	0.08849079	-0.44090334	-0.05759946	0.21797455	-0.72130098	-0.08132401	-0.35469570	-0.72121370	-0.07456735	0.32758136
1496	14.95000000	-0.93243587	-0.08286741	0.04647668	-0.68894676	0.10483697	-0.63487499	-0.62376478	-0.48295679	0.02845728	-0.74281754	-0.33891913	0.11082285	-0.09291791	0.81148574	0.09203076	-0.44642833	-0.06581087	0.20813612	-0.72336536	-0.07651345	-0.35227136	-0.71626663	-0.06715462	0.33871859
1497	14.96000000	-0.93387637	-0.07319394	0.04899248	-0.68871165	0.10338152	-0.63577276	-0.62175174	-0.48651131	0.03209201	-0.73760331	-0.35066661	0.11195968	-0.07950616	0.81301383	0.08909000	-0.45226374	-0.07334648	0.19747112	-0.72311549	-0.07308831	-0.34704649	-0.71665202	-0.06526513	0.33931441
1498	14.97000000	-0.93489194	-0.06358020	0.05099187	-0.68863318	0.10163485	-0.63636608	-0.61883700	-0.49297514	0.03302613	-0.73350846	-0.36109389	0.11368034	-0.07057399	0.81388774	0.07968649	-0.45835900	-0.07998929	0.18802779	-0.72165369	-0.07141955	-0.34172173	-0.72016594	-0.06449507	0.33325153
1499	14.98000000	-0.93518102	-0.05748464	0.05264002	-0.68917689	0.09822863	-0.63802721	-0.61300701	-0.50146315	0.02954742	-0.73144582	-0.36764972	0.11421686	-0.06802787	0.81239097	0.06456654	-0.46454394	-0.08569794	0.18185248	-0.72030701	-0.07163755	-0.33912541	-0.72432532	-0.06021718	0.32476107
1500	14.99000000	-0.93510953	-0.05462031	0.05421782	-0.69003368	0.09314103	-0.64011637	-0.60595818	-0.51028082	0.02358768	-0.73017079	-0.37180350	0.11401605	-0.07107222	0.80989569	0.04673940	-0.47118777	-0.09145685	0.17739705	-0.71945074	-0.07331369	-0.33874793	-0.72823239	-0.05260787	0.31502002
1501	15.00000000	-0.93543506	-0.05249462	0.05607377	-0.69043989	0.08714423	-0.64081120	-0.60156484	-0.51726121	0.01921955	-0.72717270	-0.37738737	0.11482615	-0.07732147	0.80958672	0.03054189	-0.47897350	-0.09885191	0.17100392	-0.71889914	-0.07568938	-0.33811564	-0.73192508	-0.04467284	0.30340548
1502	15.01000000	-0.93647290	-0.04943190	0.05841670	-0.69014026	0.08094735	-0.63921574	-0.60143993	-0.52131176	0.01865864	-0.72133360	-0.38629911	0.11731872	-0.08522854	0.81265541	0.01875856	-0.48764723	-0.10868985	0.16133570	-0.71856991	-0.07796759	-0.33581428	-0.73554583	-0.03846903	0.28967631
1503	15.02000000	-0.93754029	-0.04564275	0.06114190	-0.69002702	0.07509586	-0.63653512	-0.60208785	-0.52375072	0.01991517	-0.71467960	-0.39605234	0.11972544	-0.09516318	0.81579299	0.01067212	-0.49485556	-0.12002159	0.15229284	-0.71862763	-0.07927512	-0.33285011	-0.73944343	-0.03385489	0.27449514
1504	15.03000000	-0.93786474	-0.04156673	0.06407063	-0.69102638	0.07011710	-0.63419560	-0.59973203	-0.52615037	0.02063203	-0.70947611	-0.40381906	0.12017315	-0.10769640	0.81547094	0.00516108	-0.49828948	-0.13171004	0.14797319	-0.71923547	-0.07888518	-0.33046353	-0.74402870	-0.03044455	0.25851320
1505	15.04000000	-0.93714205	-0.03737193	0.06669816	-0.69281221	0.06657969	-0.63297138	-0.59483122	-0.52933763	0.02053385	-0.70606709	-0.40936870	0.11911439	-0.12279936	0.81217851	0.00182317	-0.49903103	-0.14312992	0.14719583	-0.72019715	-0.07768947	-0.32893131	-0.75006517	-0.02840068	0.24100145
1506	15.05000000	-0.93534677	-0.03306763	0.06833027	-0.69432128	0.06507170	-0.63324991	-0.59033809	-0.53369723	0.02056939	-0.70366281	-0.41400264	0.11836915	-0.14009137	0.80876715	0.00067690	-0.50015593	-0.15395950	0.14567565	-0.72110332	-0.07752952	-0.32796158	-0.75851969	-0.02820697	0.22041891
1507	15.06000000	-0.93298759	-0.02894502	0.06887670	-0.69482880	0.06514179	-0.63497899	-0.58823640	-0.53908108	0.02084561	-0.70142560	-0.41894567	0.11879793	-0.15960951	0.80641366	0.00101079	-0.50331750	-0.16421747	0.14120900	-0.72132500	-0.07920680	-0.32722122	-0.76935539	-0.02980885	0.19570405
1508	15.07000000	-0.93175708	-0.02592896	0.06960024	-0.69438648	0.06401878	-0.63713658	-0.58827609	-0.54416504	0.01955600	-0.69844364	-0.42520761	0.11908094	-0.18233328	0.80249008	0.00047246	-0.50693775	-0.17467339	0.13632605	-0.71974934	-0.08117468	-0.32630152	-0.78028997	-0.03194136	0.16688847
1509	15.08000000	-0.93325312	-0.02483728	0.07171283	-0.69314625	0.05905824	-0.63870561	-0.58980068	-0.54762684	0.01502004	-0.69392228	-0.43359554	0.11777204	-0.20920942	0.79419016	-0.00315879	-0.50919618	-0.18601584	0.13388735	-0.71547255	-0.08180791	-0.32483460	-0.78894386	-0.03329887	0.13418389
1510	15.09000000	-0.93644256	-0.02449810	0.07401136	-0.69121013	0.05216480	-0.64007528	-0.59107808	-0.54980651	0.00953084	-0.68838067	-0.44312380	0.11516660	-0.23953047	0.78218155	-0.00845193	-0.51028212	-0.19704877	0.13355200	-0.71042506	-0.08194923	-0.32297992	-0.79506957	-0.03384611	0.09813419
1511	15.10000000	-0.93874525	-0.02257265	0.07387678	-0.68865178	0.04791501	-0.64246061	-0.58974867	-0.55202232	0.00771352	-0.68311101	-0.45175299	0.11258363	-0.27161510	0.76917534	-0.01182879	-0.51156682	-0.20546967	0.13309643	-0.70820052	-0.08389122	-0.32120767	-0.79967377	-0.03429800	0.05947891
1512	15.11000000	-0.93865240	-0.01816812	0.07054540	-0.68576909	0.04843818	-0.64628487	-0.58494334	-0.55509378	0.01162909	-0.67899895	-0.45825809	0.11055945	-0.30421027	0.75664228	-0.01120007	-0.51362435	-0.21011625	0.13155517	-0.71054027	-0.08862763	-0.31991691	-0.80300654	-0.03552838	0.01889358
1513	15.12000000	-0.93709036	-0.01365183	0.06743409	-0.68336118	0.05032606	-0.65018084	-0.57913667	-0.55869934	0.01755003	-0.67600066	-0.46326143	0.10785448	-0.33704651	0.74322665	-0.00786048	-0.51521613	-0.21240213	0.13082405	-0.71500467	-0.09421249	-0.31933910	-0.80359359	-0.03874403	-0.02309472
